<svg width="283" height="251" viewBox="0 0 283 251" fill="none" xmlns="http://www.w3.org/2000/svg">
<rect width="283" height="251" fill="#121212"/>
<path d="M132.479 99.312C132.479 102.528 131.675 105.476 130.067 108.156C128.459 110.836 126.315 112.98 123.635 114.588C120.955 116.196 118.007 117 114.791 117H89.0628C85.8468 117 82.8541 116.196 80.0848 114.588C77.4048 112.98 75.2608 110.836 73.6528 108.156C72.0448 105.476 71.2408 102.528 71.2408 99.312V95.292C71.2408 93.5947 71.8215 92.1653 72.9828 91.004C74.2335 89.7533 75.7075 89.128 77.4048 89.128H81.1568C82.7648 89.128 84.1495 89.7533 85.3108 91.004C86.5615 92.1653 87.1868 93.5947 87.1868 95.292V99.312C87.1868 99.7587 87.3655 100.205 87.7228 100.652C88.1695 101.009 88.6161 101.188 89.0628 101.188H114.791C115.237 101.188 115.639 101.009 115.997 100.652C116.354 100.205 116.533 99.7587 116.533 99.312V87.118C116.533 86.1353 116.086 85.51 115.193 85.242L83.0328 73.182C79.4595 71.9313 76.6008 69.7427 74.4568 66.616C72.3128 63.4893 71.2408 60.05 71.2408 56.298V44.238C71.2408 40.9327 72.0448 37.94 73.6528 35.26C75.2608 32.58 77.4048 30.436 80.0848 28.828C82.8541 27.22 85.8468 26.416 89.0628 26.416H114.791C118.007 26.416 120.955 27.22 123.635 28.828C126.315 30.436 128.459 32.58 130.067 35.26C131.675 37.94 132.479 40.9327 132.479 44.238V47.856C132.479 49.5533 131.853 50.9827 130.603 52.144C129.441 53.3053 128.012 53.886 126.315 53.886H122.697C120.999 53.886 119.525 53.3053 118.275 52.144C117.113 50.9827 116.533 49.5533 116.533 47.856V44.238C116.533 42.9873 115.952 42.362 114.791 42.362H89.0628C88.6161 42.362 88.1695 42.5407 87.7228 42.898C87.3655 43.2553 87.1868 43.702 87.1868 44.238V56.298C87.1868 57.37 87.6335 58.04 88.5268 58.308L120.821 70.368C124.305 71.6187 127.119 73.8073 129.263 76.934C131.407 80.0607 132.479 83.4553 132.479 87.118V99.312ZM222.937 110.836C222.937 112.533 222.312 114.007 221.061 115.258C219.9 116.419 218.515 117 216.907 117H170.811C169.203 117 167.774 116.419 166.523 115.258C165.362 114.007 164.781 112.533 164.781 110.836V32.58C164.781 30.7933 165.362 29.3193 166.523 28.158C167.774 26.9967 169.203 26.416 170.811 26.416H174.563C176.261 26.416 177.69 26.9967 178.851 28.158C180.102 29.3193 180.727 30.7933 180.727 32.58V99.446C180.727 100.607 181.263 101.188 182.335 101.188H216.907C218.515 101.188 219.9 101.769 221.061 102.93C222.312 104.091 222.937 105.565 222.937 107.352V110.836ZM131.628 216.836C131.628 218.533 131.003 220.007 129.752 221.258C128.591 222.419 127.162 223 125.464 223H88.2122C84.9962 223 82.0035 222.196 79.2342 220.588C76.5542 218.98 74.4102 216.836 72.8022 214.156C71.1942 211.476 70.3902 208.528 70.3902 205.312V150.238C70.3902 146.933 71.1942 143.94 72.8022 141.26C74.4102 138.58 76.5542 136.436 79.2342 134.828C82.0035 133.22 84.9962 132.416 88.2122 132.416H113.94C117.156 132.416 120.104 133.22 122.784 134.828C125.464 136.436 127.608 138.58 129.216 141.26C130.824 143.94 131.628 146.933 131.628 150.238V216.836ZM115.682 194.458V150.238C115.682 148.987 115.102 148.362 113.94 148.362H88.2122C87.7655 148.362 87.3189 148.541 86.8722 148.898C86.5149 149.255 86.3362 149.702 86.3362 150.238V205.312C86.3362 205.759 86.5149 206.205 86.8722 206.652C87.3189 207.009 87.7655 207.188 88.2122 207.188H102.818C103.086 207.188 103.265 207.054 103.354 206.786C103.533 206.429 103.488 206.116 103.22 205.848L96.6542 199.282C95.4929 198.121 94.9122 196.691 94.9122 194.994V189.902C94.9122 188.562 95.2695 187.401 95.9842 186.418C96.6989 185.346 97.6369 184.587 98.7982 184.14C99.9595 183.693 101.121 183.604 102.282 183.872C103.533 184.051 104.56 184.631 105.364 185.614L114.476 194.994C114.744 195.173 115.012 195.217 115.28 195.128C115.548 195.039 115.682 194.815 115.682 194.458ZM223.695 142.198C223.695 143.895 223.114 145.369 221.953 146.62C220.791 147.781 219.317 148.362 217.531 148.362H203.461C202.299 148.362 201.719 148.943 201.719 150.104V216.836C201.719 218.533 201.093 220.007 199.843 221.258C198.681 222.419 197.252 223 195.555 223H192.071C190.373 223 188.899 222.419 187.649 221.258C186.487 220.007 185.907 218.533 185.907 216.836V150.104C185.907 148.943 185.326 148.362 184.165 148.362H169.961C168.263 148.362 166.789 147.781 165.539 146.62C164.377 145.369 163.797 143.895 163.797 142.198V138.58C163.797 136.793 164.377 135.319 165.539 134.158C166.789 132.997 168.263 132.416 169.961 132.416H217.531C219.317 132.416 220.791 132.997 221.953 134.158C223.114 135.319 223.695 136.793 223.695 138.58V142.198Z" fill="white"/>
</svg>
